<?xml version="1.0" encoding="UTF-8" standalone="no"?>
<!-- Generator: Adobe Illustrator 19.2.1, SVG Export Plug-In . SVG Version: 6.00 Build 0)  -->

<svg
   xmlns:dc="http://purl.org/dc/elements/1.1/"
   xmlns:cc="http://creativecommons.org/ns#"
   xmlns:rdf="http://www.w3.org/1999/02/22-rdf-syntax-ns#"
   xmlns:svg="http://www.w3.org/2000/svg"
   xmlns="http://www.w3.org/2000/svg"
   xmlns:sodipodi="http://sodipodi.sourceforge.net/DTD/sodipodi-0.dtd"
   xmlns:inkscape="http://www.inkscape.org/namespaces/inkscape"
   version="1.1"
   id="Ebene_1"
   x="0px"
   y="0px"
   viewBox="0 0 567 227"
   style="enable-background:new 0 0 567 227;"
   xml:space="preserve"
   inkscape:version="0.91 r13725"
   sodipodi:docname="pya_logo_rgb.svg"><metadata
     id="metadata19"><rdf:RDF><cc:Work
         rdf:about=""><dc:format>image/svg+xml</dc:format><dc:type
           rdf:resource="http://purl.org/dc/dcmitype/StillImage" /></cc:Work></rdf:RDF></metadata><defs
     id="defs17" /><sodipodi:namedview
     pagecolor="#ffffff"
     bordercolor="#666666"
     borderopacity="1"
     objecttolerance="10"
     gridtolerance="10"
     guidetolerance="10"
     inkscape:pageopacity="0"
     inkscape:pageshadow="2"
     inkscape:window-width="1304"
     inkscape:window-height="745"
     id="namedview15"
     showgrid="false"
     inkscape:zoom="0.61728395"
     inkscape:cx="283.5"
     inkscape:cy="113.5"
     inkscape:window-x="54"
     inkscape:window-y="-8"
     inkscape:window-maximized="1"
     inkscape:current-layer="Ebene_1" /><style
     type="text/css"
     id="style3">
	.st0{fill:#BFB25F;}
	.st1{fill:#2F9A41;}
</style><path
     class="st0"
     d="M78.8,195.1c-2.4,0-3.3-0.5-3.3-0.5c0,1.4,0.3,3.4,2.8,3.4h4.7v19.4c0,1.9,3.7,1.9,3.7,1.9v-21.3h4.8  c2.4,0,2.8-2,2.8-3.4c0,0-0.9,0.5-3.3,0.5H78.8z M106.3,201.4c-1.9,0-3.2,0.7-4.7,0.7c-0.7,0-1.4-0.2-2.3-0.6v15.6c0,2,3.5,2,3.5,2  v-14.3c0,0,1.4-0.5,2.9-0.5c2,0,3.6,0.9,3.6,2.9c0.5-0.6,1.2-1.6,1.2-2.9C110.5,202.3,108.6,201.4,106.3,201.4 M123.7,201.4  c-3,0-6.4,1-6.4,3.6c0,0.8,0.3,1.8,1.1,2.9c0-2.6,2.3-3.7,5.3-3.7c2.9,0,3.6,1.2,3.6,2.6c-1.3,2.9-10.5,0.9-10.5,7.3  c0,3.8,3.3,5.1,6.5,5.1c1.9,0,3.4-0.6,5.1-0.6c0.8,0,1.6,0.1,2.4,0.5V207C130.8,203.5,128.3,201.4,123.7,201.4 M127.3,215.9  c0,0-1.4,0.8-3.5,0.8c-2.4,0-3.5-1-3.5-2.5c0-3.5,6.4-2.3,7.1-4.3V215.9z M140.3,201.6v15.6c0,1.9,3.5,1.9,3.5,1.9v-15.6  C143.9,201.6,140.5,201.6,140.3,201.6 M141.3,198.7h2.5v-2.5c0-0.4-0.6-0.9-1-0.9h-2.5v2.6C140.3,198.4,140.8,198.7,141.3,198.7   M161.2,201.4c-1.9,0-3.4,0.7-5,0.7c-1.2,0-2.2-0.4-2.6-0.6v15.7c0,1.9,3.5,1.9,3.5,1.9v-14.4c0,0,1.5-0.6,3.6-0.6  c2.7,0,3.7,1.1,3.7,3v10c0,1.9,3.5,1.9,3.5,1.9v-12.4C168,202.5,164.5,201.4,161.2,201.4 M177.7,201.6v15.6c0,1.9,3.5,1.9,3.5,1.9  v-15.6C181.3,201.6,177.9,201.6,177.7,201.6 M178.7,198.7h2.5v-2.5c0-0.4-0.6-0.9-1-0.9h-2.5v2.6  C177.7,198.4,178.2,198.7,178.7,198.7 M198.6,201.4c-1.9,0-3.4,0.7-5,0.7c-1.2,0-2.2-0.4-2.6-0.6v15.7c0,1.9,3.5,1.9,3.5,1.9v-14.4  c0,0,1.5-0.6,3.6-0.6c2.7,0,3.7,1.1,3.7,3v10c0,1.9,3.5,1.9,3.5,1.9v-12.4C205.4,202.5,201.9,201.4,198.6,201.4 M222.2,216.5h-1.1  c-2.6,0-4-0.2-4-1.9c0-0.4,0.1-1,0.2-1.6c0,0,1.5,1,4.3,1c4.5,0,7-2.1,7-5.7v-6.9c-1,0.4-1.9,0.6-2.6,0.6c-1.6,0-3.2-0.7-5-0.7  c-3.2,0-6.4,1.4-6.4,5.2v1.7c0,1.3,0.4,2.8,1.2,3.6c-1,1.1-1.7,2.1-1.7,3.5c0,3.5,3,3.8,6.3,3.8h1.7c2.2,0,3.7,0.2,3.7,2.1  c0,1.7-1,3-4.3,3c-3.3,0-5.8-1-5.9-3.5c-0.7,1-1,1.8-1,2.6c0,2.3,2.9,3.6,7.1,3.6c5.3,0,7.6-2.4,7.6-5.8  C229.3,216.6,225.5,216.5,222.2,216.5 M218.1,207.1c0-2.2,0.8-3.1,3.5-3.1c2,0,3.4,0.6,3.5,0.7v3.1c0,2.2-0.7,3.5-3.5,3.5  c-2.8,0-3.5-1.3-3.5-3.5V207.1z M261.1,216.3c-3.5,0-5-1.7-5-4c0-2.3,1.1-3.7,3.7-4h0.6v1.3c0,0.7,0,3.1,3.9,3.5  c0,0-0.6-1.2-0.6-2.7v-2.2h1.8c2.1,0,2.1-2.9,2.1-2.9h-3.9V203c0-1.9-3.3-1.9-3.3-1.9v4.2c-2.9-0.1-3.9-1.3-3.9-3.9  c0-2.2,1.5-3.8,4.7-3.8c3.3,0,6.7,1,6.7,4.3c0.8-1,1.2-2,1.2-2.9c0-2.7-3.5-4.4-7.9-4.4c-4.8,0-8.3,2.4-8.3,6.2v0.8  c0,2.2,1,4.3,3.2,4.8c-2.4,0.7-3.5,3-3.5,5.2v1c0,3.9,3.5,6.5,8.7,6.5c4.7,0,8.2-1.6,8.2-4.3c0-0.8-0.3-1.8-1.1-2.9  C268.1,215.3,264.7,216.3,261.1,216.3 M302.7,216.3c-3.5,0-6-1.3-6-5.5v-7.6c0-4.2,2.5-5.5,6-5.5c3.6,0,7.8,1.1,8.2,4.1  c0.5-0.9,0.8-1.7,0.8-2.4c0-3.4-4.5-4.7-9-4.7c-5.1,0-9.7,2.1-9.7,8v8.6c0,5.9,4.5,8,9.7,8c4.3,0,9.1-1.1,9.1-4.4  c0-0.8-0.2-1.7-0.8-2.7C310.5,215.4,306.3,216.3,302.7,216.3 M328.3,201.4c-5.2,0-7.7,2.1-7.7,5.7v6.6c0,3.5,2.5,5.7,7.7,5.7  c5.3,0,7.7-2.1,7.7-5.7V207C336,203.5,333.6,201.4,328.3,201.4 M332.5,213.1c0,2.2-0.7,3.5-4.2,3.5c-3.4,0-4.1-1.3-4.1-3.5v-5.6  c0-2.2,0.7-3.5,4.1-3.5c3.5,0,4.2,1.3,4.2,3.5V213.1z M353,201.4c-1.8,0-3.4,0.7-5,0.7c-1.2,0-2.2-0.4-2.6-0.6v15.7  c0,1.9,3.5,1.9,3.5,1.9v-14.4c0,0,1.5-0.6,3.6-0.6c2.7,0,3.7,1.1,3.7,3v10c0,1.9,3.5,1.9,3.5,1.9v-12.4  C359.8,202.5,356.3,201.4,353,201.4 M372.1,206.7c0-1.7,1-2.4,3.6-2.4c3.1,0,5.2,1.1,5.2,3.3c0.8-1.1,1.1-2.1,1.1-2.9  c0-2.3-2.7-3.3-6.5-3.3c-4.6,0-7.1,1.8-7.1,5.4c0,7.2,10.8,2.8,10.8,7c0,1.7-1.6,2.6-3.7,2.6c-2.9,0-5.5-0.9-5.5-3.6  c-1,1.1-1.3,2.1-1.3,2.9c0,2.4,2.9,3.5,6.9,3.5c4.9,0,7.3-2.1,7.3-5.3C382.9,206,372.1,210.2,372.1,206.7 M402.5,201.6v14.4  c0,0-1.6,0.6-3.6,0.6c-2.7,0-3.6-1.1-3.6-3v-10c0-1.9-3.5-1.9-3.5-1.9V214c0,4.2,3.4,5.3,6.7,5.3c1.9,0,3.4-0.7,5-0.7  c1.2,0,2.2,0.4,2.6,0.6v-15.7C406,201.6,402.5,201.6,402.5,201.6 M419.1,213v-17.7c0-1.9-3.3-1.9-3.5-1.9v20.7c0,2.7,1.1,5,3.5,5  c0.7,0,1.6-0.2,2.4-1.1C419.4,218,419.1,214.9,419.1,213 M435.9,216.4c-2.6,0-3.3-1.5-3.3-3.8v-7.4h4.8c2.1,0,2.1-2.8,2.1-2.8h-6.9  v-1.3c0-2.9-2.8-3-3.5-3v15.4c0,3.6,2.4,5.7,6.4,5.7c3.4,0,5.8-1.4,5.8-3.6c0-0.9-0.4-1.7-1.2-2.7  C440.1,215.4,438.1,216.4,435.9,216.4 M448.9,201.6v15.6c0,1.9,3.5,1.9,3.5,1.9v-15.6C452.5,201.6,449.1,201.6,448.9,201.6   M449.9,198.7h2.5v-2.5c0-0.4-0.6-0.9-1-0.9h-2.5v2.6C448.9,198.4,449.4,198.7,449.9,198.7 M469.8,201.4c-1.9,0-3.4,0.7-5,0.7  c-1.2,0-2.2-0.4-2.6-0.6v15.7c0,1.9,3.5,1.9,3.5,1.9v-14.4c0,0,1.5-0.6,3.6-0.6c2.7,0,3.7,1.1,3.7,3v10c0,1.9,3.5,1.9,3.5,1.9v-12.4  C476.5,202.5,473.1,201.4,469.8,201.4 M493.4,216.5h-1.1c-2.6,0-4-0.2-4-1.9c0-0.4,0.1-1,0.2-1.6c0,0,1.5,1,4.3,1c4.5,0,7-2.1,7-5.7  v-6.9c-1,0.4-1.9,0.6-2.6,0.6c-1.6,0-3.2-0.7-5-0.7c-3.2,0-6.4,1.4-6.4,5.2v1.7c0,1.3,0.4,2.8,1.2,3.6c-1,1.1-1.7,2.1-1.7,3.5  c0,3.5,3,3.8,6.3,3.8h1.7c2.2,0,3.7,0.2,3.7,2.1c0,1.7-1,3-4.3,3c-3.3,0-5.8-1-5.9-3.5c-0.7,1-1,1.8-1,2.6c0,2.3,2.9,3.6,7.1,3.6  c5.2,0,7.6-2.4,7.6-5.8C500.5,216.6,496.7,216.5,493.4,216.5 M489.3,207.1c0-2.2,0.8-3.1,3.5-3.1c2,0,3.4,0.6,3.5,0.7v3.1  c0,2.2-0.7,3.5-3.5,3.5c-2.8,0-3.5-1.3-3.5-3.5V207.1z"
     id="path5" /><path
     class="st1"
     d="M25.2,13.1H0v75.3c0,8.8,19.6,8.8,19.6,8.8V70.9h5.6c19.3,0,36.4-5.8,36.4-28.1v-2.1  C61.6,17.9,44.5,13.1,25.2,13.1 M25.2,56.9h-5.6V27h5.6C35,27,42,29.3,42,41.7C42,55.2,35,56.9,25.2,56.9 M89.5,121.3  c0,0-2.3-4.1-2.3-9.2c0-7.8,5.5-12.9,12.7-18.4l4.5-3.4c7.1-5.5,17-17.6,18.8-32.4l2.7-22.7c-0.1,0-18.7,0-19.9,8.4l-2.3,16  c-1.9,13.6-7.9,17.8-7.9,17.8s-5.7-3.1-7.8-17.8l-2.3-16c-1.3-8.4-19.7-8.4-19.7-8.4l2.6,22.7c1.4,12.2,8.4,23.7,16.6,29.1  c-8.9,6.6-16.1,12.1-16.1,22.7c0,8.7,4.4,13.9,11.4,13.9C83.2,123.6,86.2,122.9,89.5,121.3 M157.7,97.4c17.2,0,21.7-7.9,21.7-14.3  c0-4.4-2.4-7.9-6.2-11.4c0,10.2-7,11.9-12.6,11.9c-8.3,0-9.9-3.8-9.9-10.8V53.3h12.1c10.5,0,10.6-13.9,10.6-13.9h-22.7v-3.7  c0-10.2-19.2-8.9-19.2-8.9V76C131.6,89.5,140.6,97.4,157.7,97.4 M220.1,88.1c0,8.4,19.2,8.8,19.2,8.8V55.7  c0-14.8-11.6-21.1-24.9-21.1c-7,0-12.6,3.1-12.6,3.1s0.8-3.2,0.8-5.5V17.7c0-10-17.3-9.9-19.2-9.9v80.4c0,8.8,19.2,8.8,19.2,8.8  V56.2c0-5,4.7-8,9.2-8c4.8,0,8.2,2.5,8.2,9.1V88.1z M307.7,76V56c0-13.4-9.5-21.5-29.6-21.5c-20.3,0-29.8,8.1-29.8,21.5v20  c0,13.5,9.5,21.5,29.8,21.5C298.3,97.4,307.7,89.5,307.7,76 M288.6,74.3c0,6.3-1.8,9.8-10.4,9.8c-8.8,0-10.6-3.5-10.6-9.8V57.7  c0-6.3,1.8-9.7,10.6-9.7c8.6,0,10.4,3.4,10.4,9.7V74.3z M353.9,56.5v31.6c0,8.6,19.2,8.8,19.2,8.8V54.8c0-15.9-13.5-20.2-26.3-20.2  c-6,0-11.4,2.4-17,2.4c-7.5,0-12.6-2.7-12.6-2.7v86.9c-2-1-6.2-2.8-11-2.8c-13.5,0-25.1,8-25.1,21.1v20.5c0,13.6,10.3,21.2,28,21.2  c4.1,0,10.6-1.9,17.7-1.9c3.9,0,6.8,0.1,10.2,1.9v-132c1.3-0.3,5-0.9,8.3-0.9C351.7,48.3,353.9,51.1,353.9,56.5 M317.2,167.5  c-1.2,0.2-4.3,0.6-6.8,0.6c-7.8,0-10.2-3.5-10.2-9.9v-17.1c0-6.5,3.1-9.4,7.4-9.4c4.1,0,8.1,2.1,9.5,5.5V167.5z M475.3,118.3  c-12.7,0-19.6,4.7-19.6,4.7s-7.2-4.7-18.3-4.7c-5.8,0-11,2.3-16.3,2.3c-8.8,0-13.2-2.6-13.2-2.6v53.9c0,8.8,19.2,8.8,19.2,8.8v-47.7  c0,0,4.8-0.9,8.8-0.9c6.5,0,8.7,3.5,8.7,8.2v31.6c0,8.3,19.2,8.8,19.2,8.8v-41.9c0-4.5,4.4-7,8.8-7c4.9,0,8.7,2.6,8.7,10v30  c0,8.6,19.2,8.8,19.2,8.8v-40.9C500.3,125.7,489.3,118.3,475.3,118.3 M547.1,127.3l-2.3,16c-1.9,13.6-7.9,17.8-7.9,17.8  s-5.7-3.1-7.8-17.8l-2.3-16c-1.3-8.4-19.8-8.4-19.8-8.4l2.6,22.7c1.4,12.2,8.4,23.7,16.6,29.1c-8.9,6.6-16.1,12.1-16.1,22.7  c0,8.7,4.5,13.9,11.4,13.9c2.6,0,5.6-0.7,8.9-2.3c0,0-2.3-4.1-2.3-9.2c0-7.8,5.5-12.9,12.7-18.4l4.5-3.4c7.1-5.5,17-17.6,18.8-32.4  l2.7-22.7C566.8,118.8,548.2,118.8,547.1,127.3 M193.2,167.2c-8.1,0-12-3.1-12-11.6v-12.1c0-10.7,6.3-11.6,12.4-11.6  c6.4,0,13.7,4,13.7,14.1c3.8-5.5,5.4-10.2,5.4-13.9c0-11.6-15.5-13.8-23.2-13.8c-17.7,0-27.5,8.1-27.5,21.5v20  c0,13.5,11.1,21.5,28.7,21.5c14.6,0,23.3-6.6,23.3-15.1c0-3-1.7-6.6-4.2-10.2C209.7,161.6,203,167.2,193.2,167.2 M244.1,118.3  c-7.9,0-24.1,2.3-24.1,13.8c0,3.5,1,7.6,5.3,13.2c0-10.8,9.8-13.5,18.6-13.5c7.4,0,9.5,3.2,9.5,5.9c-5.3,7.6-34.9,3.8-34.9,24.6  c0,14.4,12.3,18.7,25.1,18.7c6.7,0,13.1-2.1,19.2-2.1c3.2,0,6.6,0.3,9.8,2.1v-42.5C272.5,125.5,262.7,118.3,244.1,118.3 M253.7,167  c0,0-4.2,1.3-8.3,1.3c-3.9,0-7.8-1.1-7.8-6.5c0-7.3,13-5.5,16.1-10.3V167z M376.6,167.2c-7,0-11.4-2.9-11.4-9.2v-1.8  c0,0,3.5,1.8,9.4,1.8c19.1,0,24.2-9.4,24.2-19.4c0-12.2-7.5-20.3-25.2-20.3c-17.7,0-27.5,8.1-27.5,21.5v20c0,13.5,10.5,21.5,30,21.5  c14.5,0,23.7-6.5,23.7-14.8c0-3.2-1.4-6.6-4.1-10.4C395.6,161.9,388.5,167.2,376.6,167.2 M365.2,141.4c0-6.3,1.8-9.7,7.5-9.7  c5,0,7,2.7,7,6.8c0,4.9-3.9,6.3-8,6.3c-2.4,0-4.8-0.5-6.5-0.9V141.4z M142.2,130.8c-7.5-22.6-21.1-35.3-24.3-37.1  c-3.1,1.8-16.8,14.4-24.3,37.1l-10,30.4c-2.5,7.8-4.2,13.7-6.8,17.5c0,0,5.8,1.9,8.9,1.9c12.1,0,14.8-8.4,17.8-17.1l1.7-5h25.6  l1.7,5c3,8.7,5.7,17.1,17.8,17.1c3.2,0,9-1.9,9-1.9c-2.6-3.8-4.4-9.7-7-17.5L142.2,130.8z M109.1,144.5l3-10.7  c1.7-6.2,5.8-17.2,5.8-17.2s4.1,11.1,5.8,17.2l3,10.7H109.1z"
     id="path7" /><g
     id="g3347"
     inkscape:export-xdpi="600"
     inkscape:export-ydpi="600"><path
       id="path9"
       d="M445.8,38.6c-1.2-1.7-3.2-2.9-5.8-2.9c-3.9,0-6.8,3-6.9,6.9c0,1.8,0.5,3,1.8,4.6l14.8,19.3l-14.5,18.9  c-1.1,1.2-1.9,2.9-1.9,4.7c0,3.7,2.9,6.9,6.8,6.9c2.5,0,4.8-1.4,6.2-3.3l17.4-22.5c1.2-1.5,2.1-3,2.1-4.8s-0.8-3.2-2.1-4.8  L445.8,38.6z"
       class="st0" /><path
       id="path11"
       d="M498.3,61.5l-17.8-22.9c-1.2-1.7-3.3-2.9-5.8-2.9c-3.9,0-6.9,3-6.9,6.9c0,1.7,0.6,3.2,1.7,4.6l14.9,19.3  l-14.6,18.9c-1,1.2-1.8,2.9-1.8,4.7c0,3.7,2.9,6.9,6.6,6.9c2.6,0,4.8-1.4,6.3-3.3l17.4-22.5c1.2-1.5,1.9-3,1.9-4.8  S499.6,63.2,498.3,61.5"
       class="st0" /><path
       id="path13"
       d="M411.1,38.6c-1.2-1.7-3.2-2.9-5.8-2.9c-3.9,0-6.8,3-6.9,6.9c0,1.8,0.6,3,1.8,4.6l14.7,19.3l-14.5,18.9  c-1.1,1.2-1.9,2.9-1.9,4.7c0,3.7,2.9,6.9,6.8,6.9c2.5,0,4.8-1.4,6.2-3.3l17.4-22.5c1.2-1.5,2.1-3,2.1-4.8s-0.8-3.2-2.1-4.8  L411.1,38.6z"
       class="st0" /></g></svg>